# xmcd
#
# Track frame offsets: 
#        182
#        18680
#        43652
#        61005
#        80460
#        101995
#        120972
#        141542
#        161830
#        181767
#
# Disc length: 2713 seconds
#
# Revision: 1
# Processed by: cddbd v1.5.2PL0 Copyright (c) Steve Scherf et al.
# Submitted via: ExactAudioCopy v1.0b3
#
DISCID=840a970a
DTITLE=Emberek - Száz út...
DYEAR=1995
DGENRE=Pop
TTITLE0=Száz út
TTITLE1=Mama
TTITLE2=Fekete angyal
TTITLE3=A Hold titka
TTITLE4=Nem Szólnak a húrok
TTITLE5=Kaviár
TTITLE6=Gyertyafény
TTITLE7=Könnyek
TTITLE8=Lángoló éj
TTITLE9=Elszöknek a színek
EXTD=
EXTT0=
EXTT1=
EXTT2=
EXTT3=
EXTT4=
EXTT5=
EXTT6=
EXTT7=
EXTT8=
EXTT9=
PLAYORDER=
